PathFileType	4	(X/Y/Z)	s04c0201.trc
DataRate	CameraRate	NumFrames	NumMarkers	Units	OrigDataRate	OrigDataStartFrame	OrigNumFrames
200	200	4	51	mm	200	1250	2000
Frame#	Time	racr			lacr			c7			jug			rlel			rdr			llel			ldr			s2			lic			ric			lasi			rasi			rpsi			lpsi			rgt			lgt			rth1			rth2			rth3			rth4			rlfc			rmfc			rsh1			rsh2			rsh3			rsh4			rlmal			rmmal			rcal			rtoe			rmt5			lth1			lth2			lth4			lth3			llfc			lmfc			lsh1			lsh2			lsh3			lsh4			llmal			lmmal			lcal			ltoe			lmt1			lmt5			SBIKE			LBIKE			RBIKE			
		X1	Y1	Z1	X2	Y2	Z2	X3	Y3	Z3	X4	Y4	Z4	X5	Y5	Z5	X6	Y6	Z6	X7	Y7	Z7	X8	Y8	Z8	X9	Y9	Z9	X10	Y10	Z10	X11	Y11	Z11	X12	Y12	Z12	X13	Y13	Z13	X14	Y14	Z14	X15	Y15	Z15	X16	Y16	Z16	X17	Y17	Z17	X18	Y18	Z18	X19	Y19	Z19	X20	Y20	Z20	X21	Y21	Z21	X22	Y22	Z22	X23	Y23	Z23	X24	Y24	Z24	X25	Y25	Z25	X26	Y26	Z26	X27	Y27	Z27	X28	Y28	Z28	X29	Y29	Z29	X30	Y30	Z30	X31	Y31	Z31	X32	Y32	Z32	X33	Y33	Z33	X34	Y34	Z34	X35	Y35	Z35	X36	Y36	Z36	X37	Y37	Z37	X38	Y38	Z38	X39	Y39	Z39	X40	Y40	Z40	X41	Y41	Z41	X42	Y42	Z42	X43	Y43	Z43	X44	Y44	Z44	X45	Y45	Z45	X46	Y46	Z46	X47	Y47	Z47	X48	Y48	Z48	X49	Y49	Z49	X50	Y50	Z50	X51	Y51	Z51	
1250	6.2500	483.573732	1367.453283	-130.628237	463.212778	1361.924872	-415.483194	456.779823	1433.566791	-277.320906	427.079706	1278.779372	-275.363482	437.744104	1082.641974	12.284146	666.935889	945.771379	-116.198484	455.363467	1123.756438	-584.898081	665.642826	946.932306	-491.245824	-89.444189	1175.885302	-314.965775	83.906391	1189.185726	-457.148498	39.553750	1208.886421	-138.151460	115.494237	1147.374115	-403.410540	95.685368	1168.676897	-176.394940	-70.336065	1225.089384	-273.099121	-61.794371	1222.557479	-347.378512	6.458115	1149.569518	-120.101524	48.260318	1084.665110	-479.539424	141.150361	1048.657652	-105.549999	224.779552	1019.912035	-114.233663	282.697324	957.789577	-118.118488	242.662966	1050.124144	-128.446458	388.625821	862.084683	-140.385449	373.057954	836.999748	-252.380684	340.404650	729.400307	-113.072652	342.260104	654.473145	-125.979386	293.145855	583.749065	-130.377882	374.935135	648.363668	-148.050531	256.844214	436.821220	-132.871717	274.946305	446.425541	-218.583485	190.282969	393.946277	-169.408299	488.523312	421.920941	-162.917526	427.961025	387.760445	-105.655707	109.818120	1013.924020	-483.121913	184.736441	970.227818	-480.477144	208.413947	994.023461	-467.407502	229.378729	893.132157	-483.399068	303.505165	755.748448	-460.033597	325.088578	728.509370	-348.471808	247.353436	647.987698	-480.218539	210.633442	572.940062	-455.477423	139.070117	520.171146	-453.491478	232.992653	560.026326	-425.632141	41.136793	406.526020	-445.263394	42.187496	406.693266	-355.405300	-34.223874	431.140126	-401.587776	192.224125	226.118140	-414.773862	0.000000	0.000000	-0.000000	113.038629	246.828528	-471.898313	-186.681423	935.253218	-285.987943	-18.239529	79.266679	-484.624394	-18.237885	79.268619	-83.795740	
1251	6.2550	483.626114	1367.965071	-131.335774	462.246464	1362.313119	-416.043036	456.093655	1433.867164	-277.861039	427.245364	1278.938897	-275.800149	438.272833	1082.893582	12.109851	667.521378	945.732770	-116.094635	454.184088	1123.823690	-584.583988	664.901121	946.947000	-491.432106	-89.169971	1173.486462	-314.561272	84.343147	1187.823979	-456.856249	40.112136	1206.561078	-137.005619	116.448091	1146.601240	-402.960584	96.692918	1167.557127	-175.831722	-70.672750	1222.530152	-271.675706	-61.864231	1219.908886	-347.057060	6.951111	1145.307434	-119.407158	50.450318	1083.514102	-478.855001	140.768253	1043.108215	-104.874133	223.606338	1013.064291	-112.921218	280.523410	949.794475	-117.682250	241.780980	1042.448124	-127.437117	385.462769	853.758115	-139.762928	369.954133	828.976915	-252.010829	335.414053	716.659919	-112.232665	340.934430	645.131605	-125.348953	292.947002	573.777811	-129.507860	374.398668	639.590791	-146.540838	259.345556	425.351199	-131.968364	277.515472	436.661622	-216.808754	193.138703	382.386694	-168.358608	491.285758	411.703020	-163.083786	431.007696	377.123931	-105.642508	112.335441	1014.769959	-482.201459	187.857146	972.007386	-480.141810	211.368111	996.110799	-467.259632	233.305252	895.406223	-483.129268	309.822824	759.917851	-458.508596	330.619516	732.089132	-347.190580	251.889571	653.914428	-479.776284	213.458460	579.521710	-455.011241	140.759532	528.388024	-453.110462	235.576136	566.212422	-425.345223	40.630675	417.017399	-445.276124	41.762988	417.255985	-355.879291	-34.535980	442.957321	-401.752478	188.993479	234.717913	-414.698965	0.000000	0.000000	-0.000000	110.141178	256.449180	-471.943370	-186.747548	935.233072	-286.053072	-18.257130	79.239488	-484.617964	-18.253161	79.282196	-83.805794	
1252	6.2600	483.723832	1368.320634	-131.865497	462.884081	1363.251785	-418.139213	455.326527	1434.156896	-278.374912	427.343552	1279.024307	-276.182618	438.910240	1083.082779	11.988654	668.421945	945.818817	-115.882688	453.033628	1123.992782	-584.683976	664.235805	946.905262	-491.560915	-88.889987	1171.108842	-314.111967	84.734123	1186.619257	-456.736666	40.735280	1204.388589	-136.061677	117.386376	1145.904603	-402.774071	97.642392	1166.267448	-175.286017	-70.833935	1219.811980	-270.465511	-61.951838	1217.705175	-346.360941	7.434342	1141.699833	-118.893116	52.432586	1082.447271	-478.461399	140.225938	1038.522266	-103.791999	222.311195	1006.966340	-111.629133	278.165274	942.671742	-117.061435	241.143555	1036.104280	-125.898326	382.417089	845.445478	-139.069793	366.654273	820.573272	-251.304071	329.988793	704.352016	-111.370346	339.691405	636.054318	-124.230139	292.264400	564.282146	-128.619131	372.433099	630.198343	-145.725626	261.578569	414.368170	-130.926710	280.205276	425.662443	-216.292857	195.481536	371.514462	-167.107317	493.761154	400.951412	-163.483393	433.692621	366.322218	-105.717776	114.512991	1015.340079	-481.905956	190.457028	973.315156	-479.847912	213.767309	997.680609	-467.038502	236.643708	897.209187	-482.894278	316.032339	764.039198	-457.804383	335.814915	735.578939	-346.167730	256.067946	659.610962	-479.257891	216.061497	586.203975	-454.487173	142.335841	536.490251	-452.694463	237.902606	572.127083	-424.827747	40.332837	427.353018	-445.307232	42.008737	427.544053	-356.653590	-34.740268	454.554759	-401.998129	186.391564	244.079639	-414.702338	0.000000	0.000000	-0.000000	107.786401	266.420001	-472.015458	-186.894774	935.169048	-285.580770	-18.263009	79.181834	-484.602254	-18.257217	79.263138	-83.820263	
1253	6.2650	483.854506	1368.583041	-132.266905	462.276165	1363.502550	-418.821689	454.516431	1434.254411	-278.746634	427.460015	1279.286744	-276.600259	439.743547	1083.123357	11.909190	669.397572	945.981271	-115.666788	452.019925	1123.898853	-584.845616	663.625531	946.747708	-491.682934	-88.590665	1168.939397	-313.612936	84.836944	1185.446383	-456.368151	41.468049	1202.440075	-135.147363	118.024798	1145.171348	-402.392951	98.675632	1165.132875	-174.716041	-70.853556	1217.478928	-269.524658	-62.281935	1215.196229	-345.548955	8.076350	1138.576917	-118.503658	54.242283	1081.365085	-478.093606	139.493180	1034.207270	-102.453894	221.214232	1001.476492	-110.734338	275.893903	936.554463	-116.147342	240.573115	1030.324375	-124.861415	379.381622	837.303195	-138.353188	363.323440	812.130940	-250.462483	324.166157	692.480710	-110.488502	338.749232	627.082834	-123.048998	291.883341	554.928821	-127.530863	371.088762	621.560727	-144.655163	263.380127	404.064765	-129.781179	281.052748	414.666020	-215.903585	197.382996	361.232605	-165.630611	495.868433	389.841301	-164.034448	435.875175	355.463206	-105.773550	116.271567	1015.423776	-481.974017	192.589110	974.135198	-479.535172	215.598693	998.776837	-466.725692	239.682886	898.631982	-482.315408	321.639864	767.858109	-456.850732	340.922993	738.805129	-345.478536	260.028284	665.286711	-478.769741	218.558901	592.616976	-453.868838	143.870982	544.329659	-452.236880	240.099018	577.944648	-424.749084	40.176691	437.690563	-445.252431	40.809530	438.096236	-356.774113	-34.900379	466.011658	-402.082185	184.450594	253.833051	-414.612565	0.000000	0.000000	-0.000000	106.086212	276.631405	-472.086507	-186.815163	935.267214	-285.926331	-18.275774	79.155339	-484.598051	-18.256795	79.247221	-83.801921	
